<svg version="1.1" id="Layer_1" xmlns="http://www.w3.org/2000/svg" xmlns:xlink="http://www.w3.org/1999/xlink" x="0px" y="0px"
	 width="100%" viewBox="0 0 352 352" enable-background="new 0 0 352 352" xml:space="preserve">
<path fill="#17303B" opacity="1.000000" stroke="none" 
	d="
M199.000000,353.000000 
	C132.666672,353.000000 66.833359,353.000000 1.000026,353.000000 
	C1.000018,235.666702 1.000018,118.333397 1.000009,1.000074 
	C118.333282,1.000049 235.666565,1.000049 352.999878,1.000025 
	C352.999939,118.333260 352.999939,235.666519 352.999969,352.999878 
	C301.833344,353.000000 250.666672,353.000000 199.000000,353.000000 
M193.716431,317.182465 
	C228.739014,312.934387 258.423462,297.913574 281.904724,271.706970 
	C342.741577,203.809113 324.864319,98.676399 245.279251,54.442223 
	C235.041016,48.751705 227.401016,53.211967 227.383774,64.948845 
	C227.352951,85.944153 227.372772,106.939545 227.375504,127.934898 
	C227.376312,134.100128 227.206802,140.272537 227.447098,146.428696 
	C227.729630,153.666855 232.929291,158.078308 239.590149,157.109497 
	C244.910690,156.335632 248.142899,152.050568 248.158432,145.427902 
	C248.203766,126.098938 248.169846,106.769806 248.188370,87.440758 
	C248.190018,85.717255 248.346848,83.993896 248.477875,81.329712 
	C251.620499,83.557755 253.987122,85.055618 256.155273,86.800102 
	C283.408813,108.728065 295.808716,137.768661 297.216278,172.183105 
	C300.288666,247.302643 235.458069,306.363190 160.851837,296.307129 
	C104.845566,288.758118 60.958973,242.162048 57.252659,186.311951 
	C53.461189,129.178726 89.851456,77.261711 144.812088,62.330070 
	C154.986237,59.565968 165.790710,59.026936 176.341827,57.778309 
	C183.575012,56.922337 187.609268,53.224491 187.379242,46.845802 
	C187.161804,40.816265 182.850830,36.888287 175.919662,37.064713 
	C169.437927,37.229702 162.899323,37.496944 156.507339,38.496582 
	C81.379623,50.245712 30.351070,115.640709 36.944527,191.529007 
	C43.625137,268.420410 116.234337,326.997040 193.716431,317.182465 
M150.613586,197.846039 
	C145.999039,193.944702 140.804108,193.774124 135.651947,196.186401 
	C130.790695,198.462463 129.707901,202.985825 129.972107,207.989670 
	C130.086121,210.149109 129.976837,212.319656 129.995010,214.484955 
	C130.137497,231.459412 139.589386,243.738190 156.037323,247.898682 
	C167.851562,250.887100 179.752975,250.726105 191.685776,248.277863 
	C222.066406,242.044647 226.589447,206.452774 210.092484,190.566269 
	C204.496597,185.177444 198.268997,180.359085 191.914841,175.867493 
	C185.674286,171.456192 178.676605,168.114670 172.444946,163.692459 
	C167.743668,160.356232 163.211441,156.485992 159.531601,152.078903 
	C154.621582,146.198517 154.678177,139.061752 157.624725,132.238937 
	C160.440689,125.718452 166.384720,124.076836 172.874786,123.796402 
	C189.124969,123.094246 194.567245,128.199799 194.992844,144.538086 
	C195.179916,151.719101 199.060379,155.946289 205.821503,156.334198 
	C212.893723,156.739975 218.147644,152.731689 219.073242,146.224274 
	C221.513367,129.068893 211.692703,113.219032 195.069016,108.241531 
	C182.022049,104.334984 168.729401,104.288376 155.624481,107.973129 
	C140.113312,112.334442 131.327332,124.221489 130.713623,140.307709 
	C130.224777,153.121338 135.938797,162.952072 145.523468,170.480530 
	C152.956833,176.319183 161.340454,180.930893 169.052322,186.437210 
	C176.062866,191.442825 183.223694,196.410980 189.416733,202.337692 
	C195.094177,207.770981 195.268433,215.152695 192.543320,222.378372 
	C190.007462,229.102249 184.233398,231.157730 177.811737,231.683136 
	C165.044846,232.727692 152.745026,230.013428 153.840164,210.761047 
	C154.070297,206.715256 152.086288,202.543518 150.613586,197.846039 
M199.384964,54.977470 
	C206.439301,62.248981 216.868744,60.820889 220.028275,52.150791 
	C221.847656,47.158234 220.074860,41.484375 215.733795,38.406242 
	C211.360550,35.305302 205.495987,35.561275 201.391129,39.032288 
	C196.778366,42.932766 195.993652,47.872574 199.384964,54.977470 
M237.582169,166.023682 
	C228.962906,167.397461 224.204224,174.145325 226.699112,181.455963 
	C228.629425,187.112244 234.030594,190.278076 240.083923,189.301315 
	C245.637131,188.405243 249.795380,183.399155 249.731186,177.687057 
	C249.661591,171.494461 245.559998,167.276871 237.582169,166.023682 
z"/>
<path fill="#00FB44" opacity="1.000000" stroke="none" 
	d="
M193.265121,317.228638 
	C116.234337,326.997040 43.625137,268.420410 36.944527,191.529007 
	C30.351070,115.640709 81.379623,50.245712 156.507339,38.496582 
	C162.899323,37.496944 169.437927,37.229702 175.919662,37.064713 
	C182.850830,36.888287 187.161804,40.816265 187.379242,46.845802 
	C187.609268,53.224491 183.575012,56.922337 176.341827,57.778309 
	C165.790710,59.026936 154.986237,59.565968 144.812088,62.330070 
	C89.851456,77.261711 53.461189,129.178726 57.252659,186.311951 
	C60.958973,242.162048 104.845566,288.758118 160.851837,296.307129 
	C235.458069,306.363190 300.288666,247.302643 297.216278,172.183105 
	C295.808716,137.768661 283.408813,108.728065 256.155273,86.800102 
	C253.987122,85.055618 251.620499,83.557755 248.477875,81.329712 
	C248.346848,83.993896 248.190018,85.717255 248.188370,87.440758 
	C248.169846,106.769806 248.203766,126.098938 248.158432,145.427902 
	C248.142899,152.050568 244.910690,156.335632 239.590149,157.109497 
	C232.929291,158.078308 227.729630,153.666855 227.447098,146.428696 
	C227.206802,140.272537 227.376312,134.100128 227.375504,127.934898 
	C227.372772,106.939545 227.352951,85.944153 227.383774,64.948845 
	C227.401016,53.211967 235.041016,48.751705 245.279251,54.442223 
	C324.864319,98.676399 342.741577,203.809113 281.904724,271.706970 
	C258.423462,297.913574 228.739014,312.934387 193.265121,317.228638 
z"/>
<path fill="#00FB44" opacity="1.000000" stroke="none" 
	d="
M150.868073,198.137939 
	C152.086288,202.543518 154.070297,206.715256 153.840164,210.761047 
	C152.745026,230.013428 165.044846,232.727692 177.811737,231.683136 
	C184.233398,231.157730 190.007462,229.102249 192.543320,222.378372 
	C195.268433,215.152695 195.094177,207.770981 189.416733,202.337692 
	C183.223694,196.410980 176.062866,191.442825 169.052322,186.437210 
	C161.340454,180.930893 152.956833,176.319183 145.523468,170.480530 
	C135.938797,162.952072 130.224777,153.121338 130.713623,140.307709 
	C131.327332,124.221489 140.113312,112.334442 155.624481,107.973129 
	C168.729401,104.288376 182.022049,104.334984 195.069016,108.241531 
	C211.692703,113.219032 221.513367,129.068893 219.073242,146.224274 
	C218.147644,152.731689 212.893723,156.739975 205.821503,156.334198 
	C199.060379,155.946289 195.179916,151.719101 194.992844,144.538086 
	C194.567245,128.199799 189.124969,123.094246 172.874786,123.796402 
	C166.384720,124.076836 160.440689,125.718452 157.624725,132.238937 
	C154.678177,139.061752 154.621582,146.198517 159.531601,152.078903 
	C163.211441,156.485992 167.743668,160.356232 172.444946,163.692459 
	C178.676605,168.114670 185.674286,171.456192 191.914841,175.867493 
	C198.268997,180.359085 204.496597,185.177444 210.092484,190.566269 
	C226.589447,206.452774 222.066406,242.044647 191.685776,248.277863 
	C179.752975,250.726105 167.851562,250.887100 156.037323,247.898682 
	C139.589386,243.738190 130.137497,231.459412 129.995010,214.484955 
	C129.976837,212.319656 130.086121,210.149109 129.972107,207.989670 
	C129.707901,202.985825 130.790695,198.462463 135.651947,196.186401 
	C140.804108,193.774124 145.999039,193.944702 150.868073,198.137939 
z"/>
<path fill="#01F844" opacity="1.000000" stroke="none" 
	d="
M199.171844,54.661041 
	C195.993652,47.872574 196.778366,42.932766 201.391129,39.032288 
	C205.495987,35.561275 211.360550,35.305302 215.733795,38.406242 
	C220.074860,41.484375 221.847656,47.158234 220.028275,52.150791 
	C216.868744,60.820889 206.439301,62.248981 199.171844,54.661041 
z"/>
<path fill="#01F844" opacity="1.000000" stroke="none" 
	d="
M237.989319,166.027740 
	C245.559998,167.276871 249.661591,171.494461 249.731186,177.687057 
	C249.795380,183.399155 245.637131,188.405243 240.083923,189.301315 
	C234.030594,190.278076 228.629425,187.112244 226.699112,181.455963 
	C224.204224,174.145325 228.962906,167.397461 237.989319,166.027740 
z"/>
</svg>